# xmcd
#
# Track frame offsets: 
#        150
#        27150
#        48183
#        65176
#        87067
#        105564
#        138737
#        160790
#
# Disc length: 2386 seconds
#
# Revision: 0
# Processed by: cddbd v1.5.2PL0 Copyright (c) Steve Scherf et al.
# Submitted via: ExactAudioCopy v0.99pb4
#
DISCID=64095008
DTITLE=Marshall Tucker Band - Greatest Hits
DYEAR=1976
DGENRE=Country
TTITLE0=Can't you see
TTITLE1=Heard It In A Love Song
TTITLE2=Searchin For A Rainbow
TTITLE3=Ramblin
TTITLE4=Fire On The Mountain
TTITLE5=This Ol' Cowboy
TTITLE6=24 Hours At A Time
TTITLE7=Long Hard Ride
EXTD=
EXTT0=
EXTT1=
EXTT2=
EXTT3=
EXTT4=
EXTT5=
EXTT6=
EXTT7=
PLAYORDER=
